:SAMPLES-PER-SECOND 30
:FULLY-SPECIFIED
:DEGREES
173
root  27.4289 30.858 35.2605 6.00018 37.9736 0.0583344
RightUpLeg  -12.4216 -0.83428 -4.19282
RightLeg  70.1391 6.9475 15.3666
RightFoot  6.20941 -0.12793 2.73548
RightToes  -53.8619 -0.337567 -0.379335
Spine  8.35038 3.23867 -1.77182
Spine1  13.7899 9.42107 -5.84524
HEad  46.0917 18.6844 -5.20801
LeftShoulder1  0 -2.42657e-020 -4.95415e-022
LeftArm  -30.3456 -8.49933 -86.2405
LeftForeArm  74.1171 -10.2926 -1.75507
LeftHand  0.379707 -11.2201 -4.23665
RightShoulder  0 2.42657e-020 1.07489e-018
RightArm  -50.4596 16.2784 93.9282
RightForeArm  47.3593 10.811 1.90851
RightHand  -0.494569 22.624 -2.10258
LeftUpLeg  -33.8953 -5.52915 -13.3844
LeftLeg  46.7307 4.18067 3.88909
LeftFoot  -13.0439 -0.0852113 -0.745351
LeftToes  17.0694 2.37847e-007 4.89147e-008
174
root  28.5072 31.371 36.1599 5.16638 37.4335 -0.222198
RightUpLeg  -17.0649 1.09909 -5.08737
RightLeg  71.3261 4.4155 10.4271
RightFoot  3.86699 -0.0393956 1.54421
RightToes  -49.1286 -0.295198 -0.360674
Spine  8.31858 3.49722 -1.12722
Spine1  14.2267 9.70166 -4.92207
HEad  44.39 18.9855 -6.6157
LeftShoulder1  0 -2.42657e-020 -4.95415e-022
LeftArm  -25.4541 -4.33681 -86.2626
LeftForeArm  63.5082 -13.7345 -2.41415
LeftHand  -0.0157596 -12.9193 -0.23088
RightShoulder  0 2.42657e-020 1.07489e-018
RightArm  -37.4679 12.7275 90.1041
RightForeArm  32.9176 18.1305 3.30175
RightHand  0.374529 23.5656 2.16591
LeftUpLeg  -28.8741 -4.45178 -13.7085
LeftLeg  43.0372 3.95604 3.23246
LeftFoot  -13.4366 -0.0910063 -0.772565
LeftToes  17.6842 2.37847e-007 4.89147e-008
175
root  29.5697 31.9283 37.0215 4.30722 38.1691 -0.789551
RightUpLeg  -20.6797 2.17158 -5.48083
RightLeg  68.9698 2.44595 5.1423
RightFoot  3.06339 -0.0140976 0.90456
RightToes  -43.1768 -0.244345 -0.332355
Spine  7.8842 3.26922 -0.381955
Spine1  14.0384 8.74537 -3.48005
HEad  43.4115 19.1799 -7.69243
LeftShoulder1  0 -2.42657e-020 -4.95415e-022
LeftArm  -24.7808 -0.890998 -86.4931
LeftForeArm  60.2407 -15.1316 -2.68352
LeftHand  -0.106472 -12.4707 0.604845
RightShoulder  0 2.42657e-020 1.07489e-018
RightArm  -28.1266 8.77273 84.8
RightForeArm  25.8484 25.8058 4.88622
RightHand  0.648767 24.3171 3.38142
LeftUpLeg  -23.4896 -4.26161 -13.6919
LeftLeg  38.2751 3.35995 2.3097
LeftFoot  -12.8219 -0.0705196 -0.627617
LeftToes  17.9613 2.37847e-007 4.89147e-008
176
root  30.5673 32.4699 37.854 3.31131 40.0993 -1.84596
RightUpLeg  -23.2508 2.79311 -5.1421
RightLeg  63.6879 0.138457 0.128603
RightFoot  1.55809 4.87531e-005 0.373796
RightToes  -38.7276 -0.208399 -0.307822
Spine  7.08543 2.35459 0.396304
Spine1  13.1411 6.1945 -1.48099
HEad  43.1156 20.2501 -8.97325
LeftShoulder1  0 -2.42657e-020 -4.95415e-022
LeftArm  -27.8171 2.85815 -87.065
LeftForeArm  60.2509 -15.7461 -2.79982
LeftHand  0.0785784 -11.7512 -1.13417
RightShoulder  0 2.42657e-020 1.07489e-018
RightArm  -21.0443 4.66964 78.9666
RightForeArm  20.5139 34.7806 7.03463
RightHand  0.812355 24.4799 4.11442
LeftUpLeg  -18.2895 -4.1144 -13.2305
LeftLeg  33.284 2.00126 1.13239
LeftFoot  -11.5425 -0.0299644 -0.296481
LeftToes  18.3817 2.37847e-007 4.89147e-008
177
root  31.5412 32.939 38.6679 2.35698 43.1015 -3.22578
RightUpLeg  -24.9479 3.55941 -4.49467
RightLeg  56.2897 -2.92342 -3.88527
RightFoot  -0.279271 -0.00050905 0.169096
RightToes  -33.2541 -0.166959 -0.273935
Spine  6.11566 0.829796 1.08039
Spine1  11.6258 2.3029 0.684527
HEad  42.8156 22.0702 -10.3719
LeftShoulder1  0 -2.42657e-020 -4.95415e-022
LeftArm  -30.954 6.85622 -87.4429
LeftForeArm  58.724 -15.847 -2.82234
LeftHand  0.206527 -11.3907 -2.44203
RightShoulder  0 2.42657e-020 1.07489e-018
RightArm  -17.2644 -0.338965 73.8325
RightForeArm  14.6349 48.584 11.5508
RightHand  1.03389 24.4702 5.1365
LeftUpLeg  -13.8486 -4.83875 -12.506
LeftLeg  29.0953 0.416917 0.1945
LeftFoot  -9.82664 0.001112 0.0129265
LeftToes  17.8896 2.37847e-007 4.89147e-008
178
root  32.5121 33.2314 39.5371 1.71715 46.8429 -4.58124
RightUpLeg  -26.2876 4.77244 -4.11849
RightLeg  48.0151 -6.18313 -6.04391
RightFoot  -1.92587 0.000100568 0.383671
RightToes  -27.3527 -0.126122 -0.233152
Spine  5.66478 -0.224475 1.83243
Spine1  10.8622 0.0799225 1.91029
HEad  42.0183 23.4213 -11.6954
LeftShoulder1  0 -2.42657e-020 -4.95415e-022
LeftArm  -33.6964 8.88028 -87.7043
LeftForeArm  59.2036 -15.233 -2.70494
LeftHand  0.260625 -11.4087 -2.98042
RightShoulder  0 2.42657e-020 1.07489e-018
RightArm  -16.4628 -6.57572 68.9229
RightForeArm  24.9706 66.365 23.9003
RightHand  0.872828 24.5984 4.37298
LeftUpLeg  -10.6115 -6.48314 -11.748
LeftLeg  26.8108 -1.05322 -0.453096
LeftFoot  -8.79901 0.0188658 0.245201
LeftToes  17.9256 2.37847e-007 4.89147e-008
